<svg width="33" height="35" viewBox="0 0 33 35" fill="none" xmlns="http://www.w3.org/2000/svg">
<path d="M29.1923 12.963C29.1923 9.52497 27.8551 6.22779 25.4748 3.79676C23.0945 1.36574 19.8662 2.11497e-07 16.5 2.11497e-07C13.1752 -0.000612774 9.98284 1.33126 7.60938 3.70928C5.23592 6.08729 3.87086 9.32154 3.80769 12.7167C2.79783 12.7167 1.82933 13.1264 1.11525 13.8557C0.401167 14.585 0 15.5742 0 16.6056V21.7907C0 22.8221 0.401167 23.8113 1.11525 24.5406C1.82933 25.2699 2.79783 25.6796 3.80769 25.6796H6.34615C7.35602 25.6796 8.32452 25.2699 9.0386 24.5406C9.75268 23.8113 10.1538 22.8221 10.1538 21.7907V16.6056C10.1538 15.5742 9.75268 14.585 9.0386 13.8557C8.32452 13.1264 7.35602 12.7167 6.34615 12.7167C6.40913 10.0092 7.50665 7.43428 9.40408 5.54241C11.3015 3.65054 13.8483 2.59183 16.5 2.59259C19.193 2.59259 21.7756 3.68518 23.6799 5.63C25.5841 7.57483 26.6538 10.2126 26.6538 12.963C25.644 12.963 24.6755 13.3727 23.9614 14.102C23.2473 14.8313 22.8462 15.8205 22.8462 16.8519V22.037C22.8496 22.8942 23.1301 23.7262 23.6443 24.4037C24.1584 25.0812 24.8773 25.5662 25.6892 25.7833C24.7298 27.5636 23.1261 28.8897 21.2215 29.4778C20.9166 28.8047 20.4295 28.2348 19.8178 27.8352C19.2062 27.4355 18.4954 27.2229 17.7692 27.2222H15.2308C14.2209 27.2222 13.2524 27.6319 12.5383 28.3612C11.8242 29.0906 11.4231 30.0797 11.4231 31.1111C11.4231 32.1425 11.8242 33.1317 12.5383 33.861C13.2524 34.5903 14.2209 35 15.2308 35H17.7692C18.6102 34.9958 19.4261 34.7073 20.0896 34.1797C20.7532 33.6521 21.2271 32.9149 21.4373 32.0833C22.9965 31.6946 24.4433 30.9338 25.659 29.8635C26.8746 28.7931 27.8245 27.4437 28.4308 25.9259H29.1923C30.2022 25.9259 31.1707 25.5162 31.8848 24.7869C32.5988 24.0576 33 23.0684 33 22.037V16.8519C33 15.8205 32.5988 14.8313 31.8848 14.102C31.1707 13.3727 30.2022 12.963 29.1923 12.963ZM7.61538 16.6056V21.7907C7.61538 22.1345 7.48166 22.4643 7.24364 22.7074C7.00561 22.9505 6.68277 23.087 6.34615 23.087H3.80769C3.47107 23.087 3.14824 22.9505 2.91021 22.7074C2.67218 22.4643 2.53846 22.1345 2.53846 21.7907V16.6056C2.53846 16.2618 2.67218 15.932 2.91021 15.6889C3.14824 15.4458 3.47107 15.3093 3.80769 15.3093H6.34615C6.68277 15.3093 7.00561 15.4458 7.24364 15.6889C7.48166 15.932 7.61538 16.2618 7.61538 16.6056ZM17.7692 32.4074H15.2308C14.8941 32.4074 14.5713 32.2708 14.3333 32.0277C14.0953 31.7846 13.9615 31.4549 13.9615 31.1111C13.9615 30.7673 14.0953 30.4376 14.3333 30.1945C14.5713 29.9514 14.8941 29.8148 15.2308 29.8148H17.7692C18.1059 29.8148 18.4287 29.9514 18.6667 30.1945C18.9047 30.4376 19.0385 30.7673 19.0385 31.1111C19.0385 31.4549 18.9047 31.7846 18.6667 32.0277C18.4287 32.2708 18.1059 32.4074 17.7692 32.4074ZM30.4615 22.037C30.4615 22.3808 30.3278 22.7106 30.0898 22.9537C29.8518 23.1968 29.5289 23.3333 29.1923 23.3333H26.6538C26.3172 23.3333 25.9944 23.1968 25.7564 22.9537C25.5183 22.7106 25.3846 22.3808 25.3846 22.037V16.8519C25.3846 16.5081 25.5183 16.1783 25.7564 15.9352C25.9944 15.6921 26.3172 15.5556 26.6538 15.5556H29.1923C29.5289 15.5556 29.8518 15.6921 30.0898 15.9352C30.3278 16.1783 30.4615 16.5081 30.4615 16.8519V22.037Z" fill="black"/>
</svg>
