<svg width="22" height="22" viewBox="0 0 22 22" fill="none" xmlns="http://www.w3.org/2000/svg">
<path d="M5.75696 1.00049C5.30779 1.00478 4.85218 1.06287 4.39806 1.18001C1.49405 1.92809 -0.231818 4.80279 0.546679 7.59558C0.617496 7.84891 0.889376 7.99986 1.15333 7.93224L5.45834 6.8237L7.55117 14.3326H2.33593C1.24594 14.3326 0.359978 15.1859 0.359978 16.2373C0.359978 17.2887 1.24594 18.142 2.33593 18.142H3.02579L1.89766 20.311C1.83895 20.424 1.82934 20.5549 1.87095 20.6747C1.91255 20.7946 2.00197 20.8936 2.11952 20.95C2.23707 21.0065 2.37313 21.0157 2.49777 20.9757C2.6224 20.9357 2.7254 20.8497 2.78411 20.7367L4.13311 18.142H8.61244L9.31071 20.6467C9.34473 20.7687 9.42776 20.8727 9.54152 20.9359C9.65529 20.999 9.79049 21.0161 9.91736 20.9834C10.0442 20.9507 10.1524 20.8708 10.2181 20.7614C10.2837 20.652 10.3015 20.5221 10.2675 20.4001L9.63756 18.142H13.4246L14.7736 20.7367C14.8323 20.8497 14.9353 20.9357 15.0599 20.9757C15.1845 21.0157 15.3206 21.0065 15.4382 20.95C15.5557 20.8936 15.6451 20.7946 15.6867 20.6747C15.7283 20.5549 15.7187 20.424 15.66 20.311L14.5136 18.1077C14.7089 18.066 14.8974 17.9987 15.0737 17.9077C15.3614 17.7574 15.6272 17.571 15.864 17.3535L20.5618 12.8221C20.9316 12.4644 21.1392 11.9804 21.1392 11.476C21.1392 10.9715 20.9316 10.4876 20.5618 10.1298C20.3784 9.95285 20.1605 9.81244 19.9205 9.71664C19.6806 9.62083 19.4233 9.57151 19.1635 9.57151C18.9037 9.57151 18.6464 9.62083 18.4065 9.71664C18.1665 9.81244 17.9486 9.95285 17.7652 10.1298L13.4072 14.3326H8.57678L6.41611 6.57608L10.7201 5.46754C10.9841 5.39944 11.1411 5.13707 11.0703 4.88326C10.4136 2.52713 8.18258 0.977637 5.75696 1.00049ZM16.7025 1.00049C16.5711 1.00049 16.4452 1.05066 16.3523 1.13996C16.2594 1.22926 16.2072 1.35038 16.2072 1.47667V2.42903C16.2072 2.55532 16.2594 2.67644 16.3523 2.76574C16.4452 2.85504 16.5711 2.90521 16.7025 2.90521C16.8338 2.90521 16.9598 2.85504 17.0526 2.76574C17.1455 2.67644 17.1977 2.55532 17.1977 2.42903V1.47667C17.1977 1.35038 17.1455 1.22926 17.0526 1.13996C16.9598 1.05066 16.8338 1.00049 16.7025 1.00049ZM5.89761 1.95381C6.77853 1.9716 7.63427 2.23969 8.357 2.72431C9.07974 3.20893 9.63713 3.88839 9.95896 4.67708L5.68565 5.77801L5.67971 5.77896L5.67475 5.78086L1.40194 6.88227C1.0637 4.75231 2.43993 2.67046 4.65459 2.09999C5.05971 1.99528 5.47818 1.94606 5.89761 1.95381ZM13.9015 2.11666C13.8034 2.11645 13.7075 2.14425 13.626 2.19654C13.5444 2.24883 13.4808 2.32324 13.4433 2.41033C13.4058 2.49742 13.396 2.59327 13.4153 2.6857C13.4345 2.77814 13.4819 2.86299 13.5513 2.9295L14.2516 3.60282C14.345 3.68956 14.4701 3.73755 14.5999 3.73647C14.7298 3.73538 14.854 3.6853 14.9458 3.59702C15.0376 3.50873 15.0897 3.3893 15.0908 3.26444C15.092 3.13959 15.0421 3.01931 14.9518 2.9295L14.2516 2.25618C14.2057 2.2119 14.1511 2.17677 14.091 2.15283C14.0309 2.12889 13.9665 2.11659 13.9015 2.11666ZM19.5035 2.11666C19.4384 2.11659 19.374 2.12889 19.3139 2.15283C19.2538 2.17677 19.1993 2.2119 19.1533 2.25618L18.4531 2.9295C18.3629 3.01931 18.313 3.13959 18.3141 3.26444C18.3152 3.3893 18.3673 3.50873 18.4591 3.59702C18.5509 3.6853 18.6752 3.73538 18.805 3.73647C18.9349 3.73755 19.0599 3.68956 19.1533 3.60282L19.8536 2.9295C19.9231 2.86299 19.9704 2.77814 19.9897 2.6857C20.0089 2.59327 19.9992 2.49742 19.9616 2.41033C19.9241 2.32324 19.8606 2.24883 19.779 2.19654C19.6974 2.14425 19.6015 2.11645 19.5035 2.11666ZM16.7025 3.38139C15.609 3.38139 14.7216 4.23471 14.7216 5.28611C14.7216 6.33752 15.609 7.19083 16.7025 7.19083C17.7959 7.19083 18.6834 6.33752 18.6834 5.28611C18.6834 4.23471 17.7959 3.38139 16.7025 3.38139ZM16.7025 4.33375C16.8326 4.33378 16.9614 4.35845 17.0816 4.40636C17.2018 4.45426 17.311 4.52445 17.4029 4.61293C17.4949 4.70141 17.5678 4.80644 17.6176 4.92203C17.6674 5.03761 17.693 5.16149 17.6929 5.28659C17.6929 5.41168 17.6672 5.53555 17.6174 5.65111C17.5676 5.76668 17.4946 5.87167 17.4026 5.96011C17.3106 6.04854 17.2013 6.11868 17.0811 6.16653C16.9609 6.21437 16.8321 6.23898 16.702 6.23895C16.4392 6.23888 16.1873 6.13846 16.0015 5.95977C15.8158 5.78108 15.7115 5.53876 15.7115 5.28611C15.7116 5.03347 15.816 4.7912 16.0019 4.61259C16.1877 4.43399 16.4397 4.33369 16.7025 4.33375ZM12.7407 4.80993C12.6093 4.80993 12.4833 4.8601 12.3905 4.9494C12.2976 5.0387 12.2454 5.15982 12.2454 5.28611C12.2454 5.4124 12.2976 5.53352 12.3905 5.62282C12.4833 5.71212 12.6093 5.76229 12.7407 5.76229H13.7311C13.8624 5.76229 13.9884 5.71212 14.0813 5.62282C14.1742 5.53352 14.2263 5.4124 14.2263 5.28611C14.2263 5.15982 14.1742 5.0387 14.0813 4.9494C13.9884 4.8601 13.8624 4.80993 13.7311 4.80993H12.7407ZM19.6738 4.80993C19.5425 4.80993 19.4165 4.8601 19.3237 4.9494C19.2308 5.0387 19.1786 5.15982 19.1786 5.28611C19.1786 5.4124 19.2308 5.53352 19.3237 5.62282C19.4165 5.71212 19.5425 5.76229 19.6738 5.76229H20.6643C20.7956 5.76229 20.9216 5.71212 21.0145 5.62282C21.1073 5.53352 21.1595 5.4124 21.1595 5.28611C21.1595 5.15982 21.1073 5.0387 21.0145 4.9494C20.9216 4.8601 20.7956 4.80993 20.6643 4.80993H19.6738ZM14.6017 6.82989C14.5367 6.82982 14.4723 6.84211 14.4122 6.86606C14.3521 6.89 14.2975 6.92512 14.2516 6.96941L13.5513 7.64273C13.4585 7.73201 13.4063 7.85311 13.4063 7.97938C13.4063 8.10566 13.4585 8.22676 13.5513 8.31604C13.6442 8.40533 13.7701 8.45549 13.9015 8.45549C14.0328 8.45549 14.1587 8.40533 14.2516 8.31604L14.9518 7.64273C15.0211 7.57613 15.0682 7.49129 15.0873 7.39894C15.1064 7.30658 15.0966 7.21085 15.0591 7.12385C15.0217 7.03686 14.9582 6.96249 14.8768 6.91017C14.7954 6.85785 14.6996 6.82991 14.6017 6.82989ZM18.8032 6.82989C18.7053 6.82991 18.6096 6.85785 18.5281 6.91017C18.4467 6.96249 18.3833 7.03686 18.3458 7.12385C18.3083 7.21085 18.2985 7.30658 18.3176 7.39894C18.3367 7.49129 18.3839 7.57613 18.4531 7.64273L19.1533 8.31604C19.1993 8.36026 19.2539 8.39532 19.314 8.41925C19.3741 8.44318 19.4384 8.45549 19.5035 8.45549C19.5685 8.45549 19.6329 8.44318 19.693 8.41925C19.753 8.39532 19.8076 8.36026 19.8536 8.31604C19.8996 8.27183 19.936 8.21935 19.9609 8.16158C19.9858 8.10382 19.9986 8.04191 19.9986 7.97938C19.9986 7.91686 19.9858 7.85495 19.9609 7.79719C19.936 7.73942 19.8996 7.68694 19.8536 7.64273L19.1533 6.96941C19.1074 6.92512 19.0528 6.89 18.9928 6.86606C18.9327 6.84211 18.8683 6.82982 18.8032 6.82989ZM16.7025 7.66701C16.5711 7.66701 16.4452 7.71718 16.3523 7.80648C16.2594 7.89578 16.2072 8.0169 16.2072 8.14319V9.09555C16.2072 9.22184 16.2594 9.34296 16.3523 9.43226C16.4452 9.52156 16.5711 9.57173 16.7025 9.57173C16.8338 9.57173 16.9598 9.52156 17.0526 9.43226C17.1455 9.34296 17.1977 9.22184 17.1977 9.09555V8.14319C17.1977 8.0169 17.1455 7.89578 17.0526 7.80648C16.9598 7.71718 16.8338 7.66701 16.7025 7.66701ZM19.1633 10.5241C19.4153 10.5241 19.6684 10.6169 19.8605 10.8022C20.0458 10.9812 20.1498 11.2234 20.1498 11.476C20.1498 11.7285 20.0458 11.9708 19.8605 12.1498L15.1628 16.6811C15.0742 16.7663 14.8558 16.9401 14.6082 17.0668C14.4824 17.1311 14.3501 17.1897 14.2263 17.1897H2.33593C1.79168 17.1897 1.35043 16.7625 1.35043 16.2373C1.35043 15.7121 1.79168 15.2849 2.33593 15.2849H13.6132C13.7446 15.2849 13.8705 15.2347 13.9634 15.1454L18.4665 10.8022C18.5578 10.714 18.6664 10.644 18.786 10.5963C18.9056 10.5485 19.0338 10.524 19.1633 10.5241Z" fill="none" stroke="none" stroke-width="0.1"/>
<path d="M5.75696 1.00049C5.30779 1.00478 4.85218 1.06287 4.39806 1.18001C1.49405 1.92809 -0.231818 4.80279 0.546679 7.59558C0.617496 7.84891 0.889376 7.99986 1.15333 7.93224L5.45834 6.8237L7.55117 14.3326H2.33593C1.24594 14.3326 0.359978 15.1859 0.359978 16.2373C0.359978 17.2887 1.24594 18.142 2.33593 18.142H3.02579L1.89766 20.311C1.83895 20.424 1.82934 20.5549 1.87095 20.6747C1.91255 20.7946 2.00197 20.8936 2.11952 20.95C2.23707 21.0065 2.37313 21.0157 2.49777 20.9757C2.6224 20.9357 2.7254 20.8497 2.78411 20.7367L4.13311 18.142H8.61244L9.31071 20.6467C9.34473 20.7687 9.42776 20.8727 9.54152 20.9359C9.65529 20.999 9.79049 21.0161 9.91736 20.9834C10.0442 20.9507 10.1524 20.8708 10.2181 20.7614C10.2837 20.652 10.3015 20.5221 10.2675 20.4001L9.63756 18.142H13.4246L14.7736 20.7367C14.8323 20.8497 14.9353 20.9357 15.0599 20.9757C15.1845 21.0157 15.3206 21.0065 15.4382 20.95C15.5557 20.8936 15.6451 20.7946 15.6867 20.6747C15.7283 20.5549 15.7187 20.424 15.66 20.311L14.5136 18.1077C14.7089 18.066 14.8974 17.9987 15.0737 17.9077C15.3614 17.7574 15.6272 17.571 15.864 17.3535L20.5618 12.8221C20.9316 12.4644 21.1392 11.9804 21.1392 11.476C21.1392 10.9715 20.9316 10.4876 20.5618 10.1298C20.3784 9.95285 20.1605 9.81244 19.9205 9.71664C19.6806 9.62083 19.4233 9.57151 19.1635 9.57151C18.9037 9.57151 18.6464 9.62083 18.4065 9.71664C18.1665 9.81244 17.9486 9.95285 17.7652 10.1298L13.4072 14.3326H8.57678L6.41611 6.57608L10.7201 5.46754C10.9841 5.39944 11.1411 5.13707 11.0703 4.88326C10.4136 2.52713 8.18258 0.977637 5.75696 1.00049ZM16.7025 1.00049C16.5711 1.00049 16.4452 1.05066 16.3523 1.13996C16.2594 1.22926 16.2072 1.35038 16.2072 1.47667V2.42903C16.2072 2.55532 16.2594 2.67644 16.3523 2.76574C16.4452 2.85504 16.5711 2.90521 16.7025 2.90521C16.8338 2.90521 16.9598 2.85504 17.0526 2.76574C17.1455 2.67644 17.1977 2.55532 17.1977 2.42903V1.47667C17.1977 1.35038 17.1455 1.22926 17.0526 1.13996C16.9598 1.05066 16.8338 1.00049 16.7025 1.00049ZM5.89761 1.95381C6.77853 1.9716 7.63427 2.23969 8.357 2.72431C9.07974 3.20893 9.63713 3.88839 9.95896 4.67708L5.68565 5.77801L5.67971 5.77896L5.67475 5.78086L1.40194 6.88227C1.0637 4.75231 2.43993 2.67046 4.65459 2.09999C5.05971 1.99528 5.47818 1.94606 5.89761 1.95381ZM13.9015 2.11666C13.8034 2.11645 13.7075 2.14425 13.626 2.19654C13.5444 2.24883 13.4808 2.32324 13.4433 2.41033C13.4058 2.49742 13.396 2.59327 13.4153 2.6857C13.4345 2.77814 13.4819 2.86299 13.5513 2.9295L14.2516 3.60282C14.345 3.68956 14.4701 3.73755 14.5999 3.73647C14.7298 3.73538 14.854 3.6853 14.9458 3.59702C15.0376 3.50873 15.0897 3.3893 15.0908 3.26444C15.092 3.13959 15.0421 3.01931 14.9518 2.9295L14.2516 2.25618C14.2057 2.2119 14.1511 2.17677 14.091 2.15283C14.0309 2.12889 13.9665 2.11659 13.9015 2.11666ZM19.5035 2.11666C19.4384 2.11659 19.374 2.12889 19.3139 2.15283C19.2538 2.17677 19.1993 2.2119 19.1533 2.25618L18.4531 2.9295C18.3629 3.01931 18.313 3.13959 18.3141 3.26444C18.3152 3.3893 18.3673 3.50873 18.4591 3.59702C18.5509 3.6853 18.6752 3.73538 18.805 3.73647C18.9349 3.73755 19.0599 3.68956 19.1533 3.60282L19.8536 2.9295C19.9231 2.86299 19.9704 2.77814 19.9897 2.6857C20.0089 2.59327 19.9992 2.49742 19.9616 2.41033C19.9241 2.32324 19.8606 2.24883 19.779 2.19654C19.6974 2.14425 19.6015 2.11645 19.5035 2.11666ZM16.7025 3.38139C15.609 3.38139 14.7216 4.23471 14.7216 5.28611C14.7216 6.33752 15.609 7.19083 16.7025 7.19083C17.7959 7.19083 18.6834 6.33752 18.6834 5.28611C18.6834 4.23471 17.7959 3.38139 16.7025 3.38139ZM16.7025 4.33375C16.8326 4.33378 16.9614 4.35845 17.0816 4.40636C17.2018 4.45426 17.311 4.52445 17.4029 4.61293C17.4949 4.70141 17.5678 4.80644 17.6176 4.92203C17.6674 5.03761 17.693 5.16149 17.6929 5.28659C17.6929 5.41168 17.6672 5.53555 17.6174 5.65111C17.5676 5.76668 17.4946 5.87167 17.4026 5.96011C17.3106 6.04854 17.2013 6.11868 17.0811 6.16653C16.9609 6.21437 16.8321 6.23898 16.702 6.23895C16.4392 6.23888 16.1873 6.13846 16.0015 5.95977C15.8158 5.78108 15.7115 5.53876 15.7115 5.28611C15.7116 5.03347 15.816 4.7912 16.0019 4.61259C16.1877 4.43399 16.4397 4.33369 16.7025 4.33375ZM12.7407 4.80993C12.6093 4.80993 12.4833 4.8601 12.3905 4.9494C12.2976 5.0387 12.2454 5.15982 12.2454 5.28611C12.2454 5.4124 12.2976 5.53352 12.3905 5.62282C12.4833 5.71212 12.6093 5.76229 12.7407 5.76229H13.7311C13.8624 5.76229 13.9884 5.71212 14.0813 5.62282C14.1742 5.53352 14.2263 5.4124 14.2263 5.28611C14.2263 5.15982 14.1742 5.0387 14.0813 4.9494C13.9884 4.8601 13.8624 4.80993 13.7311 4.80993H12.7407ZM19.6738 4.80993C19.5425 4.80993 19.4165 4.8601 19.3237 4.9494C19.2308 5.0387 19.1786 5.15982 19.1786 5.28611C19.1786 5.4124 19.2308 5.53352 19.3237 5.62282C19.4165 5.71212 19.5425 5.76229 19.6738 5.76229H20.6643C20.7956 5.76229 20.9216 5.71212 21.0145 5.62282C21.1073 5.53352 21.1595 5.4124 21.1595 5.28611C21.1595 5.15982 21.1073 5.0387 21.0145 4.9494C20.9216 4.8601 20.7956 4.80993 20.6643 4.80993H19.6738ZM14.6017 6.82989C14.5367 6.82982 14.4723 6.84211 14.4122 6.86606C14.3521 6.89 14.2975 6.92512 14.2516 6.96941L13.5513 7.64273C13.4585 7.73201 13.4063 7.85311 13.4063 7.97938C13.4063 8.10566 13.4585 8.22676 13.5513 8.31604C13.6442 8.40533 13.7701 8.45549 13.9015 8.45549C14.0328 8.45549 14.1587 8.40533 14.2516 8.31604L14.9518 7.64273C15.0211 7.57613 15.0682 7.49129 15.0873 7.39894C15.1064 7.30658 15.0966 7.21085 15.0591 7.12385C15.0217 7.03686 14.9582 6.96249 14.8768 6.91017C14.7954 6.85785 14.6996 6.82991 14.6017 6.82989ZM18.8032 6.82989C18.7053 6.82991 18.6096 6.85785 18.5281 6.91017C18.4467 6.96249 18.3833 7.03686 18.3458 7.12385C18.3083 7.21085 18.2985 7.30658 18.3176 7.39894C18.3367 7.49129 18.3839 7.57613 18.4531 7.64273L19.1533 8.31604C19.1993 8.36026 19.2539 8.39532 19.314 8.41925C19.3741 8.44318 19.4384 8.45549 19.5035 8.45549C19.5685 8.45549 19.6329 8.44318 19.693 8.41925C19.753 8.39532 19.8076 8.36026 19.8536 8.31604C19.8996 8.27183 19.936 8.21935 19.9609 8.16158C19.9858 8.10382 19.9986 8.04191 19.9986 7.97938C19.9986 7.91686 19.9858 7.85495 19.9609 7.79719C19.936 7.73942 19.8996 7.68694 19.8536 7.64273L19.1533 6.96941C19.1074 6.92512 19.0528 6.89 18.9928 6.86606C18.9327 6.84211 18.8683 6.82982 18.8032 6.82989ZM16.7025 7.66701C16.5711 7.66701 16.4452 7.71718 16.3523 7.80648C16.2594 7.89578 16.2072 8.0169 16.2072 8.14319V9.09555C16.2072 9.22184 16.2594 9.34296 16.3523 9.43226C16.4452 9.52156 16.5711 9.57173 16.7025 9.57173C16.8338 9.57173 16.9598 9.52156 17.0526 9.43226C17.1455 9.34296 17.1977 9.22184 17.1977 9.09555V8.14319C17.1977 8.0169 17.1455 7.89578 17.0526 7.80648C16.9598 7.71718 16.8338 7.66701 16.7025 7.66701ZM19.1633 10.5241C19.4153 10.5241 19.6684 10.6169 19.8605 10.8022C20.0458 10.9812 20.1498 11.2234 20.1498 11.476C20.1498 11.7285 20.0458 11.9708 19.8605 12.1498L15.1628 16.6811C15.0742 16.7663 14.8558 16.9401 14.6082 17.0668C14.4824 17.1311 14.3501 17.1897 14.2263 17.1897H2.33593C1.79168 17.1897 1.35043 16.7625 1.35043 16.2373C1.35043 15.7121 1.79168 15.2849 2.33593 15.2849H13.6132C13.7446 15.2849 13.8705 15.2347 13.9634 15.1454L18.4665 10.8022C18.5578 10.714 18.6664 10.644 18.786 10.5963C18.9056 10.5485 19.0338 10.524 19.1633 10.5241Z" stroke="none" stroke-width="0.1" mask="url(#path-1-outside-1_66_1896)"/>
</svg>
