<svg width="38" height="38" viewBox="0 0 38 38" fill="none" xmlns="http://www.w3.org/2000/svg">
<rect width="38" height="38" rx="19" fill="#F3F3F9"/>
<path d="M24.2776 15.667C24.2776 14.3409 23.6883 13.0691 22.6391 12.1315C21.59 11.1938 20.1671 10.667 18.6835 10.667C17.1998 10.667 15.7769 11.1938 14.7278 12.1315C13.6787 13.0691 13.0893 14.3409 13.0893 15.667C13.0893 21.5003 10.2922 23.167 10.2922 23.167H27.0747C27.0747 23.167 24.2776 21.5003 24.2776 15.667Z" stroke="#0E1726" stroke-width="1.5" stroke-linecap="round" stroke-linejoin="round"/>
<path d="M20.2964 26.5C20.1325 26.7526 19.8972 26.9622 19.6141 27.1079C19.3311 27.2537 19.0101 27.3304 18.6834 27.3304C18.3567 27.3304 18.0358 27.2537 17.7527 27.1079C17.4696 26.9622 17.2344 26.7526 17.0704 26.5" stroke="#0E1726" stroke-width="1.5" stroke-linecap="round" stroke-linejoin="round"/>
</svg>
