<svg width="15" height="20" viewBox="0 0 15 20" fill="none" xmlns="http://www.w3.org/2000/svg">
<path d="M3.66609 4.87095C3.66609 2.95928 5.27203 1.40779 7.26778 1.40779C9.25435 1.40779 10.8687 2.95954 10.8695 4.86952C10.8606 6.73213 9.34767 8.24118 7.44055 8.32357C7.32517 8.31553 7.20286 8.31591 7.0871 8.32365C5.1781 8.24213 3.66609 6.73207 3.66609 4.87095ZM7.26778 0C4.46128 0 2.20199 2.18385 2.20199 4.87095C2.20199 7.50199 4.35871 9.64426 7.07726 9.73212C7.10757 9.7331 7.13792 9.73227 7.16813 9.72963C7.23371 9.7239 7.30404 9.7245 7.35111 9.72903C7.38348 9.73214 7.41603 9.73317 7.44855 9.73212C10.1676 9.64424 12.3222 7.50213 12.3336 4.87389L12.3336 4.87095C12.3336 2.18281 10.0634 0 7.26778 0ZM12.7205 11.9064C11.2373 10.9539 9.31812 10.4998 7.43607 10.4998C5.55378 10.4998 3.63085 10.954 2.13899 11.9051L2.1363 11.9069C0.803633 12.7647 0.039917 13.9629 0.039917 15.2499C0.039917 16.5371 0.803893 17.7333 2.13731 18.5865C3.62493 19.5433 5.5462 20 7.42875 20C9.31166 20 11.2333 19.5431 12.7211 18.586L12.7212 18.5859C14.0539 17.7281 14.8176 16.5299 14.8176 15.2428C14.8176 13.9557 14.0537 12.7597 12.7205 11.9064ZM1.50402 15.2499C1.50402 14.5405 1.92098 13.74 2.94941 13.0776C4.15137 12.3118 5.77585 11.9076 7.43607 11.9076C9.09714 11.9076 10.7162 12.3121 11.9074 13.0771L11.9085 13.0778C12.9367 13.7356 13.3535 14.5336 13.3535 15.2428C13.3535 15.9525 12.9362 16.7534 11.9067 17.416C10.7103 18.1857 9.08889 18.5922 7.42875 18.5922C5.76854 18.5922 4.14707 18.1857 2.95062 17.4159L2.94902 17.4149C1.9208 16.7571 1.50402 15.9591 1.50402 15.2499Z" fill="none"/>
</svg>
