<svg width="30" height="29" viewBox="0 0 30 29" fill="none" xmlns="http://www.w3.org/2000/svg">
<path fill-rule="evenodd" clip-rule="evenodd" d="M11.5833 0.739624C8.16032 0.739624 5.38542 3.51453 5.38542 6.93754C5.38542 10.3606 8.16032 13.1355 11.5833 13.1355C15.0063 13.1355 17.7812 10.3606 17.7812 6.93754C17.7812 3.51453 15.0063 0.739624 11.5833 0.739624ZM7.57292 6.93754C7.57292 4.72265 9.36844 2.92712 11.5833 2.92712C13.7982 2.92712 15.5938 4.72265 15.5938 6.93754C15.5938 9.15243 13.7982 10.948 11.5833 10.948C9.36844 10.948 7.57292 9.15243 7.57292 6.93754Z" fill="white"/>
<path d="M2.46875 20.7917C2.46875 18.9795 3.93782 17.5105 5.75 17.5105H6.2471C6.28554 17.5105 6.32373 17.5165 6.36027 17.5285L7.62248 17.9406C8.61346 18.2642 9.63418 18.4632 10.6617 18.5376C10.878 18.5532 11.0677 18.4014 11.1166 18.1901C11.2268 17.7137 11.3704 17.25 11.5447 16.8017C11.6217 16.6038 11.477 16.385 11.2648 16.3786C10.2635 16.3484 9.26552 16.176 8.30148 15.8612L7.03927 15.449C6.78351 15.3655 6.51615 15.323 6.2471 15.323H5.75C2.72969 15.323 0.28125 17.7714 0.28125 20.7917V22.5246C0.28125 23.6231 1.07733 24.5597 2.16144 24.7367C5.30873 25.2505 8.48755 25.5052 11.6661 25.5007C11.8879 25.5004 12.0272 25.2608 11.9279 25.0624C11.7138 24.6345 11.5288 24.1894 11.3757 23.7298C11.2937 23.484 11.0684 23.3115 10.8093 23.3079C8.03442 23.2698 5.26169 23.0264 2.51391 22.5778C2.48787 22.5735 2.46875 22.551 2.46875 22.5246V20.7917Z" fill="white"/>
<path d="M22.1562 18.3125C22.1562 17.7084 21.6666 17.2187 21.0625 17.2187C20.4584 17.2187 19.9688 17.7084 19.9688 18.3125V20.8977C19.9688 21.2476 20.1362 21.5764 20.4192 21.7823L21.8775 22.8429C22.366 23.1982 23.0501 23.0901 23.4054 22.6016C23.7607 22.1131 23.6527 21.429 23.1641 21.0738L22.1562 20.3407V18.3125Z" fill="white"/>
<path fill-rule="evenodd" clip-rule="evenodd" d="M21.0625 28.5208C25.4923 28.5208 29.0833 24.9298 29.0833 20.5C29.0833 16.0702 25.4923 12.4791 21.0625 12.4791C16.6327 12.4791 13.0417 16.0702 13.0417 20.5C13.0417 24.9298 16.6327 28.5208 21.0625 28.5208ZM21.0625 26.3333C24.2842 26.3333 26.8958 23.7216 26.8958 20.5C26.8958 17.2783 24.2842 14.6666 21.0625 14.6666C17.8408 14.6666 15.2292 17.2783 15.2292 20.5C15.2292 23.7216 17.8408 26.3333 21.0625 26.3333Z" fill="white"/>
</svg>
