<svg width="18" height="16" viewBox="0 0 18 16" fill="none" xmlns="http://www.w3.org/2000/svg">
<path fill-rule="evenodd" clip-rule="evenodd" d="M17.7519 7.85206C17.7415 8.31127 17.519 8.83946 17.0047 9.12041L16.6915 9.29143C11.9143 11.9008 6.95468 14.0169 1.87255 15.6136C1.2013 15.8245 0.637325 15.4598 0.378971 15.0089C0.126227 14.5679 0.0979577 13.9644 0.431581 13.4571L3.52006 8.76112C3.8614 8.24212 3.86952 7.53308 3.56549 7.04056L0.688135 2.37931C0.363822 1.85393 0.43379 1.24887 0.693302 0.82625C0.953949 0.401779 1.51028 0.0261308 2.18248 0.232408C7.19625 1.77097 12.0645 3.83098 16.7283 6.38698L17.0338 6.5544C17.5624 6.84408 17.7622 7.39408 17.7519 7.85206ZM16.2391 7.82938L16.0074 7.70238C11.5347 5.2511 6.87228 3.26586 2.0742 1.76906L4.84189 6.25265C5.46237 7.25781 5.42432 8.5955 4.77331 9.58536L1.83601 14.0515C6.67861 12.5007 11.4089 10.4677 15.9725 7.975L16.2391 7.82938Z" fill="white"/>
</svg>
