<svg width="16" height="16" viewBox="0 0 16 16" fill="none" xmlns="http://www.w3.org/2000/svg">
<path d="M8.00001 1.33301C4.32001 1.33301 1.33334 4.31967 1.33334 7.99968C1.33334 11.6797 4.32001 14.6663 8.00001 14.6663C11.68 14.6663 14.6667 11.6797 14.6667 7.99968C14.6667 4.31967 11.68 1.33301 8.00001 1.33301ZM8.00001 8.66634C7.63334 8.66634 7.33334 8.36634 7.33334 7.99968V5.33301C7.33334 4.96634 7.63334 4.66634 8.00001 4.66634C8.36668 4.66634 8.66668 4.96634 8.66668 5.33301V7.99968C8.66668 8.36634 8.36668 8.66634 8.00001 8.66634ZM8.66668 11.333H7.33334V9.99968H8.66668V11.333Z" fill="white"/>
</svg>
