<svg width="12" height="15" viewBox="0 0 12 15" fill="none" xmlns="http://www.w3.org/2000/svg">
<path d="M9.99999 5.33366H9.33333V4.00033C9.33333 2.16033 7.83999 0.666992 5.99999 0.666992C4.15999 0.666992 2.66666 2.16033 2.66666 4.00033V5.33366H1.99999C1.26666 5.33366 0.66666 5.93366 0.66666 6.66699V13.3337C0.66666 14.067 1.26666 14.667 1.99999 14.667H9.99999C10.7333 14.667 11.3333 14.067 11.3333 13.3337V6.66699C11.3333 5.93366 10.7333 5.33366 9.99999 5.33366ZM5.99999 11.3337C5.26666 11.3337 4.66666 10.7337 4.66666 10.0003C4.66666 9.26699 5.26666 8.66699 5.99999 8.66699C6.73333 8.66699 7.33333 9.26699 7.33333 10.0003C7.33333 10.7337 6.73333 11.3337 5.99999 11.3337ZM3.99999 5.33366V4.00033C3.99999 2.89366 4.89333 2.00033 5.99999 2.00033C7.10666 2.00033 7.99999 2.89366 7.99999 4.00033V5.33366H3.99999Z" fill="white"/>
</svg>
