<svg width="72" height="72" viewBox="0 0 72 72" fill="none" xmlns="http://www.w3.org/2000/svg">
<path fill-rule="evenodd" clip-rule="evenodd" d="M32.0675 36.0003C32.0675 39.0693 29.5805 41.5563 26.5115 41.5563C23.4425 41.5563 20.9555 39.0693 20.9555 36.0003C20.9555 32.9313 23.4425 30.4443 26.5115 30.4443H26.5205C29.5865 30.4473 32.0675 32.9343 32.0675 36.0003Z" stroke="#EF4C2D" stroke-width="4" stroke-linecap="round" stroke-linejoin="round"/>
<path d="M32.0766 36.0005H51.0306V41.5565" stroke="#EF4C2D" stroke-width="4" stroke-linecap="round" stroke-linejoin="round"/>
<path d="M42.5453 41.5565V36.0005" stroke="#EF4C2D" stroke-width="4" stroke-linecap="round" stroke-linejoin="round"/>
<path fill-rule="evenodd" clip-rule="evenodd" d="M8.2499 36.0005C8.2499 15.1895 15.1889 8.25049 35.9999 8.25049C56.8109 8.25049 63.7499 15.1895 63.7499 36.0005C63.7499 56.8115 56.8109 63.7505 35.9999 63.7505C15.1889 63.7505 8.2499 56.8115 8.2499 36.0005Z" stroke="#EF4C2D" stroke-width="4" stroke-linecap="round" stroke-linejoin="round"/>
</svg>
