<svg width="28" height="28" viewBox="0 0 28 28" fill="none" xmlns="http://www.w3.org/2000/svg">
<path fill-rule="evenodd" clip-rule="evenodd" d="M10 3C6.68629 3 4 5.68629 4 9V19C4 22.3137 6.68629 25 10 25H18C21.3137 25 24 22.3137 24 19V9C24 5.68629 21.3137 3 18 3H10ZM10.2143 4.60976C7.729 4.60976 5.71429 6.62447 5.71429 9.10975V18.8902C5.71429 21.3755 7.729 23.3902 10.2143 23.3902H17.7857C20.271 23.3902 22.2857 21.3755 22.2857 18.8902V9.10976C22.2857 6.62448 20.271 4.60976 17.7857 4.60976H10.2143ZM14 7.33333C15.4958 7.33333 16.7083 8.5459 16.7083 10.0417C16.7083 11.5374 15.4958 12.75 14 12.75C12.5042 12.75 11.2917 11.5374 11.2917 10.0417C11.2917 8.5459 12.5042 7.33333 14 7.33333ZM14 20.6682C15.9646 20.6682 17.8291 19.8017 19.0958 18.3C19.4121 17.9057 19.4598 17.3598 19.2167 16.9167C18.1302 15.0757 16.1373 13.9615 14 14C11.8627 13.9615 9.86984 15.0757 8.78333 16.9167C8.54023 17.3598 8.58792 17.9057 8.90417 18.3C10.1709 19.8017 12.0354 20.6682 14 20.6682Z" fill="#0C293D"/>
</svg>
