<svg width="27" height="27" viewBox="0 0 27 27" fill="none" xmlns="http://www.w3.org/2000/svg">
<path d="M10 6V10H6V6H10ZM12 4H4V12H12V4ZM10 16.6667V20.6667H6V16.6667H10ZM12 14.6667H4V22.6667H12V14.6667ZM20.6667 6V10H16.6667V6H20.6667ZM22.6667 4H14.6667V12H22.6667V4ZM14.6667 14.6667H16.6667V16.6667H14.6667V14.6667ZM16.6667 16.6667H18.6667V18.6667H16.6667V16.6667ZM18.6667 14.6667H20.6667V16.6667H18.6667V14.6667ZM14.6667 18.6667H16.6667V20.6667H14.6667V18.6667ZM16.6667 20.6667H18.6667V22.6667H16.6667V20.6667ZM18.6667 18.6667H20.6667V20.6667H18.6667V18.6667ZM20.6667 16.6667H22.6667V18.6667H20.6667V16.6667ZM20.6667 20.6667H22.6667V22.6667H20.6667V20.6667ZM25.3333 6.66667C24.6 6.66667 24 6.06667 24 5.33333V2.66667H21.3333C20.6 2.66667 20 2.06667 20 1.33333C20 0.6 20.6 0 21.3333 0H25.3333C26.0667 0 26.6667 0.6 26.6667 1.33333V5.33333C26.6667 6.06667 26.0667 6.66667 25.3333 6.66667ZM26.6667 25.3333V21.3333C26.6667 20.6 26.0667 20 25.3333 20C24.6 20 24 20.6 24 21.3333V24H21.3333C20.6 24 20 24.6 20 25.3333C20 26.0667 20.6 26.6667 21.3333 26.6667H25.3333C26.0667 26.6667 26.6667 26.0667 26.6667 25.3333ZM1.33333 26.6667H5.33333C6.06667 26.6667 6.66667 26.0667 6.66667 25.3333C6.66667 24.6 6.06667 24 5.33333 24H2.66667V21.3333C2.66667 20.6 2.06667 20 1.33333 20C0.6 20 0 20.6 0 21.3333V25.3333C0 26.0667 0.6 26.6667 1.33333 26.6667ZM0 1.33333V5.33333C0 6.06667 0.6 6.66667 1.33333 6.66667C2.06667 6.66667 2.66667 6.06667 2.66667 5.33333V2.66667H5.33333C6.06667 2.66667 6.66667 2.06667 6.66667 1.33333C6.66667 0.6 6.06667 0 5.33333 0H1.33333C0.6 0 0 0.6 0 1.33333Z" fill="#0C293D"/>
</svg>
