<svg width="28" height="28" viewBox="0 0 28 28" fill="none" xmlns="http://www.w3.org/2000/svg">
<path fill-rule="evenodd" clip-rule="evenodd" d="M14 3C7.92525 3 3 7.92525 3 14C3 20.0747 7.92525 25 14 25C20.0747 25 25 20.0747 25 14C25 7.92525 20.0747 3 14 3ZM14 23.1C8.982 23.1 4.9 19.018 4.9 14C4.9 8.982 8.982 4.9 14 4.9C19.018 4.9 23.1 8.982 23.1 14C23.1 19.018 19.018 23.1 14 23.1ZM18.4481 8.6045L15.8892 10.2023L14.1801 11.2679C15.5524 11.3586 16.6414 12.4462 16.7321 13.8199L17.7978 12.1121L19.3955 9.55188C19.566 9.281 19.5261 8.92763 19.2992 8.70213C19.071 8.47388 18.7163 8.43538 18.4481 8.6045ZM11.2679 14.1801L10.2023 15.8892L8.6045 18.4495C8.434 18.7204 8.47388 19.0737 8.70075 19.2992C8.83413 19.4312 9.01013 19.5 9.1875 19.5C9.314 19.5 9.4405 19.4656 9.55188 19.3955L12.1108 17.7978L13.8199 16.7321C12.4476 16.6414 11.3586 15.5524 11.2679 14.1801ZM14.1801 11.2679C14.1196 11.2638 14.0619 11.25 14 11.25C12.4806 11.25 11.25 12.4806 11.25 14C11.25 14.0619 11.2638 14.1196 11.2679 14.1801C11.3586 15.5524 12.4476 16.6414 13.8199 16.7321C13.8804 16.7362 13.9381 16.75 14 16.75C15.5194 16.75 16.75 15.5194 16.75 14C16.75 13.9381 16.7362 13.8804 16.7321 13.8199C16.6414 12.4476 15.5524 11.3586 14.1801 11.2679ZM12.625 14C12.625 13.2424 13.2424 12.625 14 12.625C14.7576 12.625 15.375 13.2424 15.375 14C15.375 14.7576 14.7576 15.375 14 15.375C13.2424 15.375 12.625 14.7576 12.625 14Z" fill="#7C7C7C"/>
</svg>
