<svg width="22" height="22" viewBox="0 0 22 22" fill="none" xmlns="http://www.w3.org/2000/svg">
<path fill-rule="evenodd" clip-rule="evenodd" d="M11 0C4.92525 0 0 4.92525 0 11C0 17.0747 4.92525 22 11 22C17.0747 22 22 17.0747 22 11C22 4.92525 17.0747 0 11 0ZM11 20.1C5.982 20.1 1.9 16.018 1.9 11C1.9 5.982 5.982 1.9 11 1.9C16.018 1.9 20.1 5.982 20.1 11C20.1 16.018 16.018 20.1 11 20.1ZM15.4481 5.6045L12.8892 7.20225L11.1801 8.26788C12.5524 8.35863 13.6414 9.44625 13.7321 10.8199L14.7978 9.11213L16.3955 6.55188C16.566 6.281 16.5261 5.92763 16.2992 5.70213C16.071 5.47388 15.7163 5.43538 15.4481 5.6045ZM8.26787 11.1801L7.20225 12.8892L5.6045 15.4495C5.434 15.7204 5.47388 16.0737 5.70075 16.2992C5.83413 16.4312 6.01013 16.5 6.1875 16.5C6.314 16.5 6.4405 16.4656 6.55188 16.3955L9.11075 14.7978L10.8199 13.7321C9.44763 13.6414 8.35863 12.5524 8.26787 11.1801ZM11.1801 8.26787C11.1196 8.26375 11.0619 8.25 11 8.25C9.48063 8.25 8.25 9.48063 8.25 11C8.25 11.0619 8.26375 11.1196 8.26787 11.1801C8.35863 12.5524 9.44763 13.6414 10.8199 13.7321C10.8804 13.7362 10.9381 13.75 11 13.75C12.5194 13.75 13.75 12.5194 13.75 11C13.75 10.9381 13.7362 10.8804 13.7321 10.8199C13.6414 9.44763 12.5524 8.35863 11.1801 8.26787ZM9.625 11C9.625 10.2424 10.2424 9.625 11 9.625C11.7576 9.625 12.375 10.2424 12.375 11C12.375 11.7576 11.7576 12.375 11 12.375C10.2424 12.375 9.625 11.7576 9.625 11Z" fill="#0C293D"/>
</svg>
