<svg width="28" height="28" viewBox="0 0 28 28" fill="none" xmlns="http://www.w3.org/2000/svg">
<path fill-rule="evenodd" clip-rule="evenodd" d="M20.4453 4.71875H21.5625C23.4579 4.71875 25 6.26081 25 8.15625V13.0547C25 13.5293 24.6153 13.9141 24.1406 13.9141C23.666 13.9141 23.2812 13.5293 23.2812 13.0547V8.15625C23.2812 7.20853 22.5102 6.4375 21.5625 6.4375H20.4453V7.29688C20.4453 7.77151 20.0606 8.15625 19.5859 8.15625C19.1113 8.15625 18.7266 7.77151 18.7266 7.29688V6.4375H14.8164V7.29688C14.8164 7.77151 14.4317 8.15625 13.957 8.15625C13.4824 8.15625 13.0977 7.77151 13.0977 7.29688V6.4375H9.23047V7.29688C9.23047 7.77151 8.84573 8.15625 8.37109 8.15625C7.89646 8.15625 7.51172 7.77151 7.51172 7.29688V6.4375H6.4375C5.48978 6.4375 4.71875 7.20853 4.71875 8.15625V21.5625C4.71875 22.5102 5.48978 23.2812 6.4375 23.2812H13.0117C13.4864 23.2812 13.8711 23.666 13.8711 24.1406C13.8711 24.6153 13.4864 25 13.0117 25H6.4375C4.54206 25 3 23.4579 3 21.5625V8.15625C3 6.26081 4.54206 4.71875 6.4375 4.71875H7.51172V3.85938C7.51172 3.38474 7.89646 3 8.37109 3C8.84573 3 9.23047 3.38474 9.23047 3.85938V4.71875H13.0977V3.85938C13.0977 3.38474 13.4824 3 13.957 3C14.4317 3 14.8164 3.38474 14.8164 3.85938V4.71875H18.7266V3.85938C18.7266 3.38474 19.1113 3 19.5859 3C20.0606 3 20.4453 3.38474 20.4453 3.85938V4.71875ZM20.6602 18.9414H21.0469C21.5215 18.9414 21.9062 19.3261 21.9062 19.8008C21.9062 20.2754 21.5215 20.6602 21.0469 20.6602H19.8008C19.3261 20.6602 18.9414 20.2754 18.9414 19.8008V18.0391C18.9414 17.5644 19.3261 17.1797 19.8008 17.1797C20.2754 17.1797 20.6602 17.5644 20.6602 18.0391V18.9414ZM15.8477 12.8828C16.3223 12.8828 16.707 12.4981 16.707 12.0234C16.707 11.5488 16.3223 11.1641 15.8477 11.1641C15.373 11.1641 14.9883 11.5488 14.9883 12.0234C14.9883 12.4981 15.373 12.8828 15.8477 12.8828ZM12.9688 15.7617C12.9688 16.2363 12.584 16.6211 12.1094 16.6211C11.6348 16.6211 11.25 16.2363 11.25 15.7617C11.25 15.2871 11.6348 14.9023 12.1094 14.9023C12.584 14.9023 12.9688 15.2871 12.9688 15.7617ZM8.37109 12.8828C8.84571 12.8828 9.23047 12.4981 9.23047 12.0234C9.23047 11.5488 8.84571 11.1641 8.37109 11.1641C7.89647 11.1641 7.51172 11.5488 7.51172 12.0234C7.51172 12.4981 7.89647 12.8828 8.37109 12.8828ZM9.23047 15.7617C9.23047 16.2363 8.84571 16.6211 8.37109 16.6211C7.89647 16.6211 7.51172 16.2363 7.51172 15.7617C7.51172 15.2871 7.89647 14.9023 8.37109 14.9023C8.84571 14.9023 9.23047 15.2871 9.23047 15.7617ZM8.37109 20.3594C8.84571 20.3594 9.23047 19.9746 9.23047 19.5C9.23047 19.0254 8.84571 18.6406 8.37109 18.6406C7.89647 18.6406 7.51172 19.0254 7.51172 19.5C7.51172 19.9746 7.89647 20.3594 8.37109 20.3594ZM12.9688 19.5C12.9688 19.9746 12.584 20.3594 12.1094 20.3594C11.6348 20.3594 11.25 19.9746 11.25 19.5C11.25 19.0254 11.6348 18.6406 12.1094 18.6406C12.584 18.6406 12.9688 19.0254 12.9688 19.5ZM12.1094 12.8828C12.584 12.8828 12.9688 12.4981 12.9688 12.0234C12.9688 11.5488 12.584 11.1641 12.1094 11.1641C11.6348 11.1641 11.25 11.5488 11.25 12.0234C11.25 12.4981 11.6348 12.8828 12.1094 12.8828ZM20.4453 12.0234C20.4453 12.4981 20.0606 12.8828 19.5859 12.8828C19.1113 12.8828 18.7266 12.4981 18.7266 12.0234C18.7266 11.5488 19.1113 11.1641 19.5859 11.1641C20.0606 11.1641 20.4453 11.5488 20.4453 12.0234Z" fill="#0C293D"/>
<circle cx="20" cy="20" r="5.25" stroke="#0C293D" stroke-width="1.5"/>
</svg>
