<svg width="28" height="28" viewBox="0 0 28 28" fill="none" xmlns="http://www.w3.org/2000/svg">
<path fill-rule="evenodd" clip-rule="evenodd" d="M19.9674 5.29179C19.9674 4.96495 19.7025 4.7 19.3757 4.7H9.29179C8.96495 4.7 8.7 4.96495 8.7 5.29179L8.7 22.8404L12.1607 19.3798C13.3613 18.1807 15.3062 18.1807 16.5075 19.3805L19.9674 22.8404V5.29179ZM19.3207 24.5978L15.3054 20.5826C14.7686 20.0464 13.8989 20.0464 13.362 20.5826L9.34679 24.5978C8.95354 24.9906 8.36253 25.108 7.84902 24.8954C7.33551 24.6827 7.00049 24.1819 7 23.6261V5.29179C7 4.02607 8.02607 3 9.29179 3H19.3757C20.6414 3 21.6674 4.02607 21.6674 5.29179V23.6261C21.667 24.1819 21.3319 24.6827 20.8184 24.8954C20.3049 25.108 19.7139 24.9906 19.3207 24.5978ZM14.6575 7.21907L15.4113 8.81079L16.955 8.9749C17.1102 8.99654 17.2385 9.10676 17.2833 9.25692C17.3281 9.40708 17.2811 9.56957 17.1631 9.67269L15.9357 10.6854L16.3159 12.3865C16.3458 12.54 16.2835 12.6969 16.1564 12.7882C16.0294 12.8794 15.8608 12.8882 15.7249 12.8108L14.2999 11.9449L12.8763 12.8108C12.7404 12.8882 12.5718 12.8794 12.4447 12.7882C12.3176 12.6969 12.2553 12.54 12.2852 12.3865L12.6655 10.6854L11.4367 9.67269C11.3186 9.56939 11.2718 9.40665 11.3169 9.2564C11.362 9.10616 11.4907 8.99611 11.6462 8.9749L13.1898 8.81079L13.9437 7.21907C14.0119 7.08467 14.1499 7 14.3006 7C14.4513 7 14.5892 7.08467 14.6575 7.21907Z" fill="#0C293D"/>
</svg>
