<svg width="15" height="22" viewBox="0 0 15 22" fill="none" xmlns="http://www.w3.org/2000/svg">
<path fill-rule="evenodd" clip-rule="evenodd" d="M12.9674 2.29179C12.9674 1.96495 12.7025 1.7 12.3757 1.7H2.29179C1.96495 1.7 1.7 1.96495 1.7 2.29179L1.7 19.8404L5.16067 16.3798C6.36125 15.1807 8.30619 15.1807 9.50752 16.3805L12.9674 19.8404V2.29179ZM12.3207 21.5978L8.30544 17.5826C7.76858 17.0464 6.89887 17.0464 6.362 17.5826L2.34679 21.5978C1.95354 21.9906 1.36253 22.108 0.849019 21.8954C0.335509 21.6827 0.000488855 21.1819 0 20.6261V2.29179C0 1.02607 1.02607 0 2.29179 0H12.3757C13.6414 0 14.6674 1.02607 14.6674 2.29179V20.6261C14.667 21.1819 14.3319 21.6827 13.8184 21.8954C13.3049 22.108 12.7139 21.9906 12.3207 21.5978ZM7.65748 4.21907L8.41131 5.81079L9.955 5.9749C10.1102 5.99654 10.2385 6.10676 10.2833 6.25692C10.3281 6.40708 10.2811 6.56957 10.1631 6.67269L8.93566 7.68537L9.31591 9.38649C9.34582 9.54005 9.28353 9.69695 9.15644 9.78817C9.02936 9.8794 8.86077 9.88823 8.72485 9.81077L7.29991 8.94487L5.8763 9.81077C5.74038 9.88823 5.5718 9.8794 5.44471 9.78817C5.31763 9.69695 5.25533 9.54005 5.28524 9.38649L5.66549 7.68537L4.43668 6.67269C4.31863 6.56939 4.27181 6.40665 4.31692 6.2564C4.36202 6.10616 4.49073 5.99611 4.64615 5.9749L6.18984 5.81079L6.94367 4.21907C7.01191 4.08467 7.14985 4 7.30058 4C7.4513 4 7.58925 4.08467 7.65748 4.21907Z" fill="#7C7C7C"/>
</svg>
