<svg width="32" height="32" viewBox="0 0 32 32" fill="none" xmlns="http://www.w3.org/2000/svg">
<g clip-path="url(#clip0_22_481)">
<path d="M12.6667 8.6665V12.6665H8.66667V8.6665H12.6667ZM14.6667 6.6665H6.66667V14.6665H14.6667V6.6665ZM12.6667 19.3332V23.3332H8.66667V19.3332H12.6667ZM14.6667 17.3332H6.66667V25.3332H14.6667V17.3332ZM23.3333 8.6665V12.6665H19.3333V8.6665H23.3333ZM25.3333 6.6665H17.3333V14.6665H25.3333V6.6665ZM17.3333 17.3332H19.3333V19.3332H17.3333V17.3332ZM19.3333 19.3332H21.3333V21.3332H19.3333V19.3332ZM21.3333 17.3332H23.3333V19.3332H21.3333V17.3332ZM17.3333 21.3332H19.3333V23.3332H17.3333V21.3332ZM19.3333 23.3332H21.3333V25.3332H19.3333V23.3332ZM21.3333 21.3332H23.3333V23.3332H21.3333V21.3332ZM23.3333 19.3332H25.3333V21.3332H23.3333V19.3332ZM23.3333 23.3332H25.3333V25.3332H23.3333V23.3332ZM28 9.33317C27.2667 9.33317 26.6667 8.73317 26.6667 7.99984V5.33317H24C23.2667 5.33317 22.6667 4.73317 22.6667 3.99984C22.6667 3.2665 23.2667 2.6665 24 2.6665H28C28.7333 2.6665 29.3333 3.2665 29.3333 3.99984V7.99984C29.3333 8.73317 28.7333 9.33317 28 9.33317ZM29.3333 27.9998V23.9998C29.3333 23.2665 28.7333 22.6665 28 22.6665C27.2667 22.6665 26.6667 23.2665 26.6667 23.9998V26.6665H24C23.2667 26.6665 22.6667 27.2665 22.6667 27.9998C22.6667 28.7332 23.2667 29.3332 24 29.3332H28C28.7333 29.3332 29.3333 28.7332 29.3333 27.9998ZM4 29.3332H8C8.73334 29.3332 9.33333 28.7332 9.33333 27.9998C9.33333 27.2665 8.73334 26.6665 8 26.6665H5.33333V23.9998C5.33333 23.2665 4.73333 22.6665 4 22.6665C3.26667 22.6665 2.66667 23.2665 2.66667 23.9998V27.9998C2.66667 28.7332 3.26667 29.3332 4 29.3332ZM2.66667 3.99984V7.99984C2.66667 8.73317 3.26667 9.33317 4 9.33317C4.73333 9.33317 5.33333 8.73317 5.33333 7.99984V5.33317H8C8.73334 5.33317 9.33333 4.73317 9.33333 3.99984C9.33333 3.2665 8.73334 2.6665 8 2.6665H4C3.26667 2.6665 2.66667 3.2665 2.66667 3.99984Z" fill="white"/>
</g>
<defs>
<clipPath id="clip0_22_481">
<rect width="32" height="32" fill="white"/>
</clipPath>
</defs>
</svg>
