<svg width="32" height="32" viewBox="0 0 32 32" fill="none" xmlns="http://www.w3.org/2000/svg">
<path d="M21 0L32 5.54604V17.9143L30 16.906V7.79911L22 11.8326V15.8976L20 16.906V11.8326L12 7.79911V11.3757L10 10.3673V5.54604L21 0ZM21 10.0837L23.7656 8.68144L16.5312 4.50615L13.2344 6.17627L21 10.0837ZM25.9219 7.61004L28.7656 6.17627L21 2.25308L18.6719 3.43476L25.9219 7.61004ZM18 17.9143L16 18.9227V18.9069L10 21.9321V29.1009L16 26.0601V28.3289L9 31.8582L0 27.3048V16.6539L9 12.1162L18 16.6539V17.9143ZM8 29.1009V21.9321L2 18.9069V26.0601L8 29.1009ZM9 20.1832L14.7656 17.2841L9 14.3693L3.23438 17.2841L9 20.1832ZM18 20.1674L25 16.6381L32 20.1674V28.4707L25 32L18 28.4707V20.1674ZM24 29.2427V24.4372L20 22.4205V27.226L24 29.2427ZM30 27.226V22.4205L26 24.4372V29.2427L30 27.226ZM25 22.6883L28.7656 20.7819L25 18.8912L21.2344 20.7819L25 22.6883Z" fill="#7C7C7C"/>
</svg>
